<svg width="870" height="330" viewBox="0 0 870 330" fill="none" xmlns="http://www.w3.org/2000/svg">
<g clip-path="url(#clip0_530_200)">
<path d="M51.3672 6.4375L134.766 215.422L219.336 6.4375H269.141L133.789 330.656L1.5625 6.4375H51.3672ZM296.289 308L359.766 -16.2188L463.281 218.156L570.508 -16.2188L627.539 308H580.859L551.758 125.969L462.5 321.867L375.781 125.773L343.359 308H296.289ZM862.109 51.3594L825.195 73.2344C818.294 61.2552 811.719 53.4427 805.469 49.7969C798.958 45.6302 790.56 43.5469 780.273 43.5469C767.643 43.5469 757.161 47.1276 748.828 54.2891C740.495 61.3203 736.328 70.1745 736.328 80.8516C736.328 95.5651 747.266 107.414 769.141 116.398L799.219 128.703C823.698 138.599 841.602 150.708 852.93 165.031C864.258 179.224 869.922 196.672 869.922 217.375C869.922 245.109 860.677 268.026 842.188 286.125C823.568 304.354 800.456 313.469 772.852 313.469C746.68 313.469 725.065 305.721 708.008 290.227C691.211 274.732 680.729 252.922 676.562 224.797L722.656 214.641C724.74 232.349 728.385 244.589 733.594 251.359C742.969 264.38 756.641 270.891 774.609 270.891C788.802 270.891 800.586 266.138 809.961 256.633C819.336 247.128 824.023 235.083 824.023 220.5C824.023 214.641 823.177 209.302 821.484 204.484C819.922 199.536 817.383 195.044 813.867 191.008C810.482 186.841 806.055 183 800.586 179.484C795.117 175.839 788.607 172.388 781.055 169.133L751.953 157.023C710.677 139.576 690.039 114.055 690.039 80.4609C690.039 57.8047 698.698 38.8594 716.016 23.625C733.333 8.26042 754.883 0.578125 780.664 0.578125C815.43 0.578125 842.578 17.5052 862.109 51.3594Z" fill="white"/>
</g>
<defs>
<clipPath id="clip0_530_200">
<rect width="870" height="330" fill="white"/>
</clipPath>
</defs>
</svg>
